<svg width="32" height="32" viewBox="0 0 32 32" fill="none" xmlns="http://www.w3.org/2000/svg">
<path d="M5.56738 3H26.4518C27.3926 3.00101 28.2945 3.37895 28.9597 4.05087C29.625 4.7228 29.9991 5.63384 30.0001 6.58409V29H9.13468V6.58409" stroke="#5029DD" stroke-width="1.5" stroke-linecap="round" stroke-linejoin="round"/>
<path d="M9.11523 12.9102H1.99961L1.99961 6.58439C1.99961 5.63383 2.37344 4.72219 3.03888 4.05005C3.70432 3.3779 4.60686 3.00029 5.54793 3.00029C6.48901 3.00029 7.39155 3.3779 8.05699 4.05005C8.72243 4.72219 9.09626 5.63383 9.09626 6.58439V12.9102H9.11523Z" stroke="#5029DD" stroke-width="1.5" stroke-linecap="round" stroke-linejoin="round"/>
<path d="M11.3408 7.49219H21.4703" stroke="#5029DD" stroke-width="1.5" stroke-linecap="round" stroke-linejoin="round"/>
<path d="M11.3408 10.9375H27.9149" stroke="#5029DD" stroke-width="1.5" stroke-linecap="round" stroke-linejoin="round"/>
<path d="M24.3027 7.49219H27.9155" stroke="#5029DD" stroke-width="1.5" stroke-linecap="round" stroke-linejoin="round"/>
<path d="M19.2524 24.9303C22.1354 24.9303 24.4725 22.5696 24.4725 19.6575C24.4725 16.7455 22.1354 14.3848 19.2524 14.3848C16.3694 14.3848 14.0322 16.7455 14.0322 19.6575C14.0322 22.5696 16.3694 24.9303 19.2524 24.9303Z" stroke="#5029DD" stroke-width="1.5" stroke-linecap="round" stroke-linejoin="round"/>
<path d="M20.1973 16.3477L18.1426 19.813H20.5233L18.6961 23.2095" stroke="#5029DD" stroke-width="1.5" stroke-linecap="round" stroke-linejoin="round"/>
</svg>
