<svg width="47" height="16" viewBox="0 0 47 16" fill="none" xmlns="http://www.w3.org/2000/svg">
<path d="M39.3552 1.9929C39.4507 1.9927 39.5453 2.01142 39.6335 2.04798C39.7218 2.08453 39.8018 2.13821 39.8692 2.2059L45.1282 7.4649C45.2642 7.60119 45.3406 7.78586 45.3406 7.9784C45.3406 8.17093 45.2642 8.3556 45.1282 8.4919L39.5062 14.1149C39.4389 14.1826 39.3587 14.2363 39.2705 14.2728C39.1823 14.3094 39.0877 14.3281 38.9922 14.3279C38.8967 14.3282 38.8021 14.3095 38.7139 14.2729C38.6256 14.2363 38.5455 14.1826 38.4782 14.1149L33.2182 8.8549C33.0822 8.71861 33.0059 8.53393 33.0059 8.3414C33.0059 8.14886 33.0822 7.96419 33.2182 7.8279L38.8412 2.2059C38.9084 2.13824 38.9883 2.08458 39.0764 2.04801C39.1644 2.01145 39.2588 1.99272 39.3542 1.9929H39.3552ZM24.7942 3.2829C24.8453 3.28281 24.8959 3.29283 24.9431 3.3124C24.9903 3.33196 25.0332 3.36068 25.0692 3.3969L29.4082 7.7349C29.4444 7.77097 29.4731 7.81384 29.4926 7.86103C29.5122 7.90822 29.5223 7.95881 29.5222 8.0099C29.5223 8.06099 29.5123 8.1116 29.4927 8.1588C29.4732 8.206 29.4444 8.24886 29.4082 8.2849L24.7712 12.9229C24.735 12.9592 24.692 12.9879 24.6446 13.0075C24.5972 13.0271 24.5465 13.0371 24.4952 13.0369C24.3921 13.0369 24.2931 12.9959 24.2202 12.9229L19.8822 8.5849C19.8095 8.51165 19.7687 8.41262 19.7687 8.3094C19.7687 8.20618 19.8095 8.10714 19.8822 8.0339L24.5202 3.3959C24.5931 3.32294 24.6921 3.28194 24.7952 3.2819L24.7942 3.2829ZM12.9792 4.72389C13.0303 4.7238 13.0809 4.73383 13.1281 4.7534C13.1753 4.77296 13.2182 4.80169 13.2542 4.8379L16.2992 7.8829C16.3722 7.95602 16.4131 8.05509 16.4131 8.1584C16.4131 8.2617 16.3722 8.36078 16.2992 8.4339L13.2542 11.4789C13.2181 11.5151 13.1752 11.5438 13.1281 11.5633C13.0809 11.5829 13.0303 11.5929 12.9792 11.5929C12.9281 11.5929 12.8775 11.5829 12.8303 11.5633C12.7831 11.5438 12.7403 11.5151 12.7042 11.4789L9.65918 8.4339C9.62293 8.39776 9.59421 8.35482 9.57458 8.30755C9.55496 8.26027 9.54486 8.20958 9.54486 8.1584C9.54486 8.10721 9.55496 8.05653 9.57458 8.00925C9.59421 7.96197 9.62293 7.91904 9.65918 7.8829L12.7042 4.8379C12.7403 4.80169 12.7831 4.77296 12.8303 4.7534C12.8775 4.73383 12.9281 4.7238 12.9792 4.72389ZM4.00421 5.8239C4.05545 5.82384 4.10621 5.83387 4.15356 5.85343C4.20092 5.87299 4.24395 5.9017 4.28021 5.9379L6.22522 7.8829C6.26143 7.91894 6.29013 7.9618 6.30969 8.009C6.32926 8.0562 6.33933 8.1068 6.33923 8.1579C6.3392 8.26105 6.29818 8.35997 6.22522 8.4329L4.28021 10.3779C4.24402 10.4142 4.201 10.4429 4.15363 10.4625C4.10625 10.4821 4.05547 10.4921 4.00421 10.4919C3.95313 10.4919 3.90254 10.4819 3.85535 10.4623C3.80816 10.4428 3.76526 10.4141 3.72919 10.3779L1.78418 8.4329C1.74793 8.39676 1.71921 8.35382 1.69958 8.30655C1.67996 8.25927 1.66986 8.20858 1.66986 8.1574C1.66986 8.10621 1.67996 8.05553 1.69958 8.00825C1.71921 7.96097 1.74793 7.91804 1.78418 7.8819L3.72919 5.9369C3.80211 5.86394 3.90106 5.82293 4.00421 5.8229V5.8239ZM39.3552 0.795901C39.1026 0.795512 38.8524 0.845049 38.619 0.941668C38.3856 1.03829 38.1737 1.18008 37.9952 1.3589L32.3722 6.9809C32.1936 7.15947 32.0519 7.37149 31.9552 7.60485C31.8585 7.8382 31.8087 8.08831 31.8087 8.3409C31.8087 8.59349 31.8585 8.8436 31.9552 9.07695C32.0519 9.3103 32.1936 9.52232 32.3722 9.7009L37.6322 14.9609C37.8106 15.1398 38.0226 15.2816 38.256 15.3782C38.4894 15.4748 38.7396 15.5243 38.9922 15.5239C39.2448 15.5243 39.4951 15.4748 39.7285 15.3782C39.9619 15.2816 40.1739 15.1398 40.3522 14.9609L45.9742 9.3389C46.1528 9.16032 46.2946 8.9483 46.3912 8.71495C46.4879 8.4816 46.5377 8.23149 46.5377 7.9789C46.5377 7.72631 46.4879 7.4762 46.3912 7.24285C46.2946 7.00949 46.1528 6.79747 45.9742 6.6189L40.7152 1.3599C40.5368 1.18112 40.3248 1.03936 40.0914 0.942744C39.858 0.846128 39.6078 0.796566 39.3552 0.7969V0.795901ZM24.7952 2.08589C24.5871 2.08578 24.3809 2.1267 24.1885 2.20632C23.9962 2.28593 23.8214 2.40269 23.6742 2.5499L19.0372 7.1879C18.8899 7.33517 18.7731 7.51002 18.6934 7.70244C18.6137 7.89487 18.5726 8.10111 18.5726 8.3094C18.5726 8.51768 18.6137 8.72393 18.6934 8.91635C18.7731 9.10878 18.8899 9.28362 19.0372 9.4309L23.3752 13.7689C23.5223 13.9162 23.6971 14.033 23.8895 14.1126C24.0818 14.1923 24.288 14.2331 24.4962 14.2329C24.7046 14.2334 24.911 14.1926 25.1036 14.113C25.2961 14.0333 25.471 13.9164 25.6182 13.7689L30.2562 9.1309C30.4035 8.98362 30.5203 8.80878 30.6 8.61635C30.6797 8.42392 30.7208 8.21768 30.7208 8.0094C30.7208 7.80111 30.6797 7.59487 30.6 7.40244C30.5203 7.21001 30.4035 7.03517 30.2562 6.8879L25.9182 2.5459C25.7709 2.39853 25.596 2.28168 25.4034 2.20205C25.2109 2.12243 25.0046 2.08159 24.7962 2.0819L24.7952 2.08589ZM12.9792 3.5279C12.7709 3.52775 12.5647 3.56875 12.3723 3.64855C12.1799 3.72835 12.0052 3.84538 11.8582 3.9929L8.81323 7.0379C8.66595 7.18517 8.54907 7.36002 8.46936 7.55244C8.38965 7.74487 8.34863 7.95112 8.34863 8.1594C8.34863 8.36768 8.38965 8.57392 8.46936 8.76635C8.54907 8.95878 8.66595 9.13362 8.81323 9.2809L11.8582 12.3259C12.0053 12.4733 12.18 12.5902 12.3724 12.6698C12.5648 12.7494 12.771 12.7902 12.9792 12.7899C13.1875 12.7903 13.3939 12.7494 13.5865 12.6698C13.779 12.5902 13.9539 12.4733 14.1012 12.3259L17.1462 9.2809C17.2935 9.13362 17.4103 8.95878 17.4901 8.76635C17.5698 8.57392 17.6108 8.36768 17.6108 8.1594C17.6108 7.95112 17.5698 7.74487 17.4901 7.55244C17.4103 7.36002 17.2935 7.18517 17.1462 7.0379L14.1012 3.9929C13.954 3.8453 13.7792 3.72823 13.5866 3.64843C13.3941 3.56863 13.1876 3.52767 12.9792 3.5279ZM4.00421 4.6279C3.79587 4.62765 3.5895 4.6685 3.39697 4.74813C3.20444 4.82775 3.02952 4.94457 2.8822 5.0919L0.937195 7.0369C0.789913 7.18417 0.673093 7.35902 0.593384 7.55144C0.513675 7.74387 0.472656 7.95011 0.472656 8.1584C0.472656 8.36668 0.513675 8.57293 0.593384 8.76535C0.673093 8.95778 0.789913 9.13262 0.937195 9.2799L2.8822 11.2249C3.02942 11.3724 3.20436 11.4893 3.39691 11.5689C3.58947 11.6485 3.79584 11.6893 4.00421 11.6889C4.21243 11.6893 4.41864 11.6485 4.61102 11.5689C4.80341 11.4892 4.97815 11.3723 5.12518 11.2249L7.07123 9.2799C7.36843 8.98233 7.53534 8.57896 7.53534 8.1584C7.53534 7.73783 7.36843 7.33446 7.07123 7.0369L5.12518 5.0919C4.97809 4.94455 4.80333 4.82771 4.61096 4.74809C4.41859 4.66846 4.21241 4.62762 4.00421 4.6279Z" fill="url(#paint0_linear_647_148)"/>
<defs>
<linearGradient id="paint0_linear_647_148" x1="11.6665" y1="20.0012" x2="14.3212" y2="-6.01729" gradientUnits="userSpaceOnUse">
<stop stop-color="#29ABE2"/>
<stop offset="0.11" stop-color="#379DE3"/>
<stop offset="0.518" stop-color="#6A6DE8"/>
<stop offset="0.828" stop-color="#8950EA"/>
<stop offset="1" stop-color="#9545EC"/>
</linearGradient>
</defs>
</svg>
