<svg width="32" height="32" viewBox="0 0 32 32" fill="none" xmlns="http://www.w3.org/2000/svg">
<path d="M17.4349 9.67188L12.5234 15.728H16.9536L12.0273 21.9362" stroke="#5029DD" stroke-width="1.5" stroke-linecap="round" stroke-linejoin="round"/>
<path d="M26.1256 20.8092C24.9 23.2683 22.8364 25.2112 20.3049 26.2896C17.7735 27.3679 14.9398 27.5111 12.3121 26.6934C9.6844 25.8757 7.43462 24.1507 5.96635 21.8277C4.49808 19.5047 3.90737 16.7358 4.30014 14.0176" stroke="#5029DD" stroke-width="1.5" stroke-linecap="round" stroke-linejoin="round"/>
<path d="M6.92578 8.2029C8.38569 6.48463 10.3173 5.22974 12.4828 4.59268C14.6483 3.95561 16.9532 3.96418 19.1139 4.61733C21.2746 5.27048 23.1968 6.53971 24.6438 8.26879C26.0908 9.99787 26.9996 12.1114 27.2582 14.3491" stroke="#5029DD" stroke-width="1.5" stroke-linecap="round" stroke-linejoin="round"/>
<path d="M20.5634 24.2023C20.5634 24.2023 20.2927 17.5833 29.0025 15.8047C29.0025 15.8047 28.2805 17.0429 28.7317 20.0035C29.1078 22.4425 27.9683 27.3204 20.9263 26.0071" stroke="#5029DD" stroke-width="1.5" stroke-linecap="round" stroke-linejoin="round"/>
<path d="M19.9619 26.4349C19.9619 26.4349 20.0823 28.8964 23.1115 28.9978C25.887 29.0897 27.2972 27.8496 28.4706 27.8946C28.4706 27.8946 28.2826 26.3937 26.7331 25.2305" stroke="#5029DD" stroke-width="1.5" stroke-linecap="round" stroke-linejoin="round"/>
<path d="M10.0597 4.07181C10.5507 4.23262 10.976 4.54832 11.2714 4.97134C11.5668 5.39435 11.7164 5.90175 11.6975 6.41699C11.6524 7.69276 11.2613 9.46008 9.59714 10.4601C6.78787 12.1486 2.99707 11.3981 2.99707 11.3981C3.9591 10.5747 4.62476 9.45985 4.8925 8.22371C5.27233 6.45638 7.07748 3.11311 10.0597 4.07181Z" stroke="#5029DD" stroke-width="1.5" stroke-linecap="round" stroke-linejoin="round"/>
</svg>
