<svg width="32" height="32" viewBox="0 0 32 32" fill="none" xmlns="http://www.w3.org/2000/svg">
<path d="M22.0559 8.65369C23.2445 9.80198 24.0507 11.3532 24.3468 13.0618C24.6429 14.7704 24.4121 16.5387 23.6907 18.0868L22.1825 17.0357L21.7411 25L29 22.0757L27.218 20.7281C27.8988 18.8852 28.1578 16.8869 27.9721 14.9084C27.7865 12.9298 27.1619 11.0316 26.1532 9.38022C25.1445 7.72882 23.7824 6.3747 22.1866 5.43666C20.5907 4.49861 18.8098 4.0053 17 4" stroke="#5029DD" stroke-width="1.5" stroke-linecap="round" stroke-linejoin="round"/>
<path d="M11.1088 23.5513C9.72089 22.4616 8.77765 20.987 8.42854 19.3614C8.07944 17.7358 8.34441 16.052 9.1815 14.5769L10.9375 15.5769L11.4514 8L3 10.7821L5.07477 12.0855C4.28117 13.8407 3.97995 15.7442 4.19751 17.6286C4.41507 19.5129 5.14474 21.3204 6.32247 22.8921C7.50019 24.4638 9.08988 25.7516 10.9517 26.6422C12.8135 27.5329 14.8905 27.9992 17 28" stroke="#5029DD" stroke-width="1.5" stroke-linecap="round" stroke-linejoin="round"/>
<path d="M14.0193 19.5612C14.0193 19.9428 14.1629 20.3088 14.4183 20.5786C14.6738 20.8484 15.0203 21 15.3816 21H17.6377C17.999 21 18.3455 20.8484 18.601 20.5786C18.8565 20.3088 19 19.9428 19 19.5612V17.9388C19 17.5572 18.8565 17.1912 18.601 16.9214C18.3455 16.6516 17.999 16.5 17.6377 16.5H15.3624C15.001 16.5 14.6545 16.3484 14.399 16.0786C14.1435 15.8088 14 15.4428 14 15.0612V13.4388C14 13.0572 14.1435 12.6912 14.399 12.4214C14.6545 12.1516 15.001 12 15.3624 12H17.6377C17.999 12 18.3455 12.1516 18.601 12.4214C18.8565 12.6912 19 13.0572 19 13.4388V14.4592" stroke="#5029DD" stroke-width="1.5" stroke-linecap="round" stroke-linejoin="round"/>
<path d="M16.5 21V23" stroke="#5029DD" stroke-width="1.5" stroke-linecap="round" stroke-linejoin="round"/>
<path d="M16.5 10V12" stroke="#5029DD" stroke-width="1.5" stroke-linecap="round" stroke-linejoin="round"/>
</svg>
