<svg width="11" height="18" viewBox="0 0 11 18" fill="none" xmlns="http://www.w3.org/2000/svg">
<path d="M0.519531 5.83777C0.519531 5.83777 2.6725 7.3848 3.0285 8.7868C3.2605 9.7028 2.54252 10.1038 3.53552 11.5188C4.52852 12.9338 4.6355 12.6808 4.5705 13.7588C4.5055 14.8368 4.33851 16.6528 4.58551 16.8648C5.07851 17.2858 6.23855 17.5828 6.51355 16.2728C6.85055 14.6728 7.82454 15.0898 7.70654 14.0348C7.56154 12.7348 8.0875 12.9758 8.6275 12.1948C9.8445 10.4358 9.74755 9.49475 9.19855 9.25775C8.64955 9.02075 8.18455 9.63776 7.69855 9.99976C7.21255 10.3618 6.81154 10.0608 6.62054 9.1098C6.42954 8.1588 5.43753 7.63079 4.38153 7.27179C3.32553 6.91279 3.05051 6.51075 4.10651 6.04675C5.16251 5.58275 7.08551 5.68775 7.29651 4.33575C7.50751 2.98375 6.18854 1.30078 6.18854 1.30078" stroke="white" stroke-miterlimit="10"/>
</svg>
