<svg width="68" height="22" viewBox="0 0 68 22" fill="none" xmlns="http://www.w3.org/2000/svg">
<path d="M57.113 2.01263C57.2521 2.01231 57.3899 2.03953 57.5185 2.09274C57.647 2.14594 57.7638 2.22408 57.862 2.32262L65.532 9.99162C65.6306 10.0901 65.7087 10.207 65.7621 10.3357C65.8154 10.4644 65.8429 10.6023 65.8429 10.7416C65.8429 10.8809 65.8154 11.0189 65.7621 11.1476C65.7087 11.2763 65.6306 11.3932 65.532 11.4916L57.332 19.6916C57.2338 19.7902 57.1171 19.8684 56.9885 19.9216C56.86 19.9748 56.7221 20.002 56.583 20.0016C56.4439 20.002 56.306 19.9748 56.1775 19.9216C56.0489 19.8684 55.9322 19.7902 55.834 19.6916L48.164 12.0216C48.0654 11.9232 47.9873 11.8063 47.9339 11.6776C47.8805 11.5489 47.853 11.4109 47.853 11.2716C47.853 11.1323 47.8805 10.9944 47.9339 10.8657C47.9873 10.737 48.0654 10.6201 48.164 10.5216L56.364 2.32162C56.4621 2.22294 56.5788 2.14472 56.7074 2.09151C56.836 2.03829 56.9738 2.01114 57.113 2.01163V2.01263ZM35.881 3.89262C35.9553 3.89257 36.0289 3.90721 36.0975 3.9357C36.1662 3.96419 36.2286 4.00596 36.281 4.05862L42.608 10.3856C42.6607 10.4381 42.7027 10.5004 42.7313 10.569C42.76 10.6376 42.7748 10.7112 42.775 10.7856C42.7749 10.86 42.7601 10.9337 42.7314 11.0023C42.7028 11.071 42.6608 11.1333 42.608 11.1856L35.846 17.9486C35.7401 18.0551 35.5962 18.1151 35.446 18.1156C35.3716 18.1154 35.298 18.1006 35.2294 18.0719C35.1607 18.0433 35.0984 18.0014 35.046 17.9486L28.72 11.6216C28.6149 11.515 28.5561 11.3713 28.5561 11.2216C28.5561 11.0719 28.6149 10.9283 28.72 10.8216L35.483 4.05862C35.5891 3.95264 35.733 3.89296 35.883 3.89262H35.881ZM18.652 5.99262C18.7264 5.9927 18.8 6.0075 18.8687 6.03616C18.9373 6.06483 18.9996 6.10678 19.052 6.15962L23.493 10.6006C23.5985 10.707 23.6577 10.8508 23.6577 11.0006C23.6577 11.1505 23.5985 11.2942 23.493 11.4006L19.052 15.8416C18.9995 15.8942 18.9372 15.936 18.8685 15.9645C18.7999 15.993 18.7263 16.0076 18.652 16.0076C18.5019 16.0075 18.3581 15.9478 18.252 15.8416L13.804 11.4026C13.6985 11.2962 13.6393 11.1525 13.6393 11.0026C13.6393 10.8528 13.6985 10.709 13.804 10.6026L18.245 6.16163C18.2974 6.10878 18.3596 6.06682 18.4283 6.03816C18.4969 6.0095 18.5706 5.99471 18.645 5.99463L18.652 5.99262ZM5.55701 7.59462C5.70701 7.59507 5.85073 7.65473 5.95697 7.76062L8.79297 10.5976C8.84563 10.6501 8.88741 10.7124 8.91589 10.7811C8.94438 10.8497 8.95903 10.9233 8.95898 10.9976C8.95876 11.1477 8.89905 11.2915 8.79297 11.3976L5.95697 14.2336C5.85102 14.3401 5.7072 14.4001 5.55701 14.4006C5.48263 14.4004 5.40903 14.3856 5.34039 14.3569C5.27176 14.3283 5.20941 14.2864 5.15698 14.2336L2.32397 11.4026C2.21845 11.2962 2.15924 11.1525 2.15924 11.0026C2.15924 10.8528 2.21845 10.709 2.32397 10.6026L5.15997 7.76563C5.26615 7.65964 5.40997 7.59996 5.56 7.59963L5.55701 7.59462ZM57.111 0.265625C56.7426 0.265467 56.3779 0.337989 56.0376 0.479042C55.6973 0.620096 55.3882 0.826908 55.128 1.08762L46.928 9.28762C46.667 9.54774 46.46 9.8568 46.3188 10.1971C46.1775 10.5374 46.1048 10.9022 46.1048 11.2706C46.1048 11.6391 46.1775 12.0039 46.3188 12.3442C46.46 12.6844 46.667 12.9935 46.928 13.2536L54.598 20.9236C54.8583 21.1842 55.1674 21.3908 55.5077 21.5317C55.848 21.6725 56.2127 21.7449 56.581 21.7446C56.9493 21.7449 57.314 21.6725 57.6543 21.5317C57.9946 21.3908 58.3037 21.1842 58.564 20.9236L66.764 12.7236C67.0249 12.4635 67.232 12.1544 67.3732 11.8142C67.5145 11.4739 67.5872 11.1091 67.5872 10.7406C67.5872 10.3722 67.5145 10.0074 67.3732 9.66708C67.232 9.3268 67.0249 9.01774 66.764 8.75762L59.095 1.08862C58.8348 0.827907 58.5256 0.621095 58.1854 0.480042C57.8451 0.338988 57.4804 0.266466 57.112 0.266625L57.111 0.265625ZM35.879 2.14662C35.5753 2.14647 35.2746 2.20618 34.9941 2.32235C34.7135 2.43852 34.4587 2.60886 34.244 2.82362L27.482 9.58662C27.0482 10.0204 26.8046 10.6087 26.8046 11.2221C26.8046 11.8355 27.0482 12.4239 27.482 12.8576L33.808 19.1846C34.0225 19.3996 34.2774 19.57 34.558 19.6862C34.8386 19.8024 35.1393 19.862 35.443 19.8616C35.7469 19.8625 36.0479 19.8031 36.3287 19.6869C36.6095 19.5707 36.8645 19.4 37.079 19.1846L43.842 12.4216C44.2757 11.9879 44.5194 11.3996 44.5194 10.7861C44.5194 10.1727 44.2757 9.58439 43.842 9.15062L37.515 2.82362C37.3003 2.6086 37.0453 2.43811 36.7645 2.32193C36.4838 2.20575 36.1828 2.14617 35.879 2.14662ZM18.648 4.24662C18.3441 4.24625 18.0431 4.30596 17.7623 4.42232C17.4816 4.53867 17.2265 4.70938 17.012 4.92462L12.571 9.36562C12.1372 9.79939 11.8936 10.3877 11.8936 11.0011C11.8936 11.6146 12.1372 12.2029 12.571 12.6366L17.012 17.0776C17.2266 17.2927 17.4817 17.4632 17.7625 17.5794C18.0432 17.6956 18.3442 17.7551 18.648 17.7546C18.9517 17.755 19.2524 17.6954 19.533 17.5792C19.8136 17.463 20.0685 17.2926 20.283 17.0776L24.724 12.6366C24.9389 12.4219 25.1093 12.167 25.2256 11.8863C25.342 11.6057 25.4019 11.3049 25.4019 11.0011C25.4019 10.6973 25.342 10.3965 25.2256 10.1159C25.1093 9.83529 24.9389 9.58034 24.724 9.36562L20.283 4.92462C20.0685 4.70954 19.8137 4.53893 19.5331 4.42259C19.2525 4.30624 18.9518 4.24643 18.648 4.24662ZM5.56 5.84662C5.25634 5.84642 4.95561 5.90611 4.67505 6.02227C4.39449 6.13844 4.13961 6.30881 3.92499 6.52362L1.08899 9.36062C0.8741 9.57534 0.703649 9.8303 0.587341 10.1109C0.471034 10.3916 0.411133 10.6923 0.411133 10.9961C0.411133 11.2999 0.471034 11.6007 0.587341 11.8813C0.703649 12.162 0.8741 12.4169 1.08899 12.6316L3.92499 15.4676C4.13948 15.6826 4.39434 15.8531 4.67493 15.9693C4.95551 16.0855 5.25631 16.145 5.56 16.1446C5.86373 16.1453 6.16457 16.0859 6.44519 15.9697C6.72582 15.8535 6.98068 15.6828 7.19501 15.4676L10.032 12.6316C10.4655 12.1977 10.709 11.6095 10.709 10.9961C10.709 10.3828 10.4655 9.79452 10.032 9.36062L7.19501 6.52362C6.98048 6.30868 6.72559 6.13822 6.44501 6.02205C6.16443 5.90587 5.86368 5.84625 5.56 5.84662Z" fill="white"/>
</svg>
